# xmcd
#
# Track frame offsets:
#	150
#	18802
#	36257
#	57251
#	71549
#	85932
#	104899
#	123926
#	137827
#	152107
#	172801
#	193666
#	212967
#	226197
#	235852
#	252437
#	276062
#	290487
#	309898
#	323129
#	343416
#
# Disc length: 4795 seconds
#
# Revision: 1
# Processed by: cddbd v1.5.2PL0 Copyright (c) Steve Scherf et al.
# Submitted via: EasyCDDAExtractor 2010.6.0.0
#
DISCID=3312b915
DTITLE=Various Artist - Akella Presents - Country-Blues - vol.29  CD2
DYEAR=2011
DGENRE=Blues
TTITLE0=COLIN JAMES - Shadow Of Love
TTITLE1=HANS THEESSINK - Roll With The Punches
TTITLE2=ER5IC BURDON - Factory Girl
TTITLE3=DELTA MOON - Take The Back Road Home
TTITLE4=BRIAN KRAMER and THE COUCH LIZARDS - I Want My Illusion
TTITLE5=MARIA MULDAUR - Buckets of Rain
TTITLE6=KILLING FLOOR - Road Of Diamonds
TTITLE7=GORDIE TENTREES - No Integrity Man
TTITLE8=JOHN CAMPBELLJOHN - Ask Me No Questions
TTITLE9=J.J.CALE and ERIC CLAPTON - Ride The River
TTITLE10=MARK KNOPFLER - Punish The Monkey
TTITLE11=LITTLE CHARLIE  The NIGHTCATS - Don't Cha Do Nothin'
TTITLE12=TOMMY SHAW - I ll Be Comin  Home
TTITLE13=J.J. CALE - All Mama's Children
TTITLE14=DUFFY BISHOP - Daughter's Lament
TTITLE15=ARLEN ROTH - North Sea
TTITLE16=PONTY BONE - Louisianna Lisa
TTITLE17=The STEEPWATER BAND - One Way Ride
TTITLE18=BIG HOUSE - Guitars and Whiskey
TTITLE19=LUCINDA WILLIAMS - Copenhagen
TTITLE20=DAVID JACOBS STRAIN - Sawgrass revival
EXTD=
EXTT0=
EXTT1=
EXTT2=
EXTT3=
EXTT4=
EXTT5=
EXTT6=
EXTT7=
EXTT8=
EXTT9=
EXTT10=
EXTT11=
EXTT12=
EXTT13=
EXTT14=
EXTT15=
EXTT16=
EXTT17=
EXTT18=
EXTT19=
EXTT20=
PLAYORDER=
